<mxfile host="app.diagrams.net" modified="2022-12-19T08:40:17.269Z" agent="5.0 (Windows NT 10.0; Win64; x64) AppleWebKit/537.36 (KHTML, like Gecko) Chrome/108.0.0.0 Safari/537.36 Edg/108.0.1462.54" etag="HLbDB6kdfD6UaklxFtv5" version="20.4.2" type="github">
  <diagram id="xbdcwXHPQUHZUbyYT70E" name="第 1 页">
    <mxGraphModel dx="735" dy="468" grid="1" gridSize="10" guides="1" tooltips="1" connect="1" arrows="1" fold="1" page="1" pageScale="1" pageWidth="827" pageHeight="1169" math="0" shadow="0">
      <root>
        <mxCell id="0" />
        <mxCell id="1" parent="0" />
        <mxCell id="_aCOL6AofIa1MBWSSgmZ-10" value="" style="rounded=1;whiteSpace=wrap;html=1;fontSize=18;fillColor=#F19C99;" parent="1" vertex="1">
          <mxGeometry x="840" y="280" width="120" height="40" as="geometry" />
        </mxCell>
        <mxCell id="_aCOL6AofIa1MBWSSgmZ-1" value="" style="rounded=1;whiteSpace=wrap;html=1;fillColor=#F19C99;" parent="1" vertex="1">
          <mxGeometry x="360" y="280" width="120" height="40" as="geometry" />
        </mxCell>
        <mxCell id="_aCOL6AofIa1MBWSSgmZ-2" value="&lt;font style=&quot;font-size: 18px;&quot;&gt;Start&lt;/font&gt;" style="text;html=1;strokeColor=none;fillColor=none;align=center;verticalAlign=middle;whiteSpace=wrap;rounded=0;" parent="1" vertex="1">
          <mxGeometry x="370" y="285" width="60" height="30" as="geometry" />
        </mxCell>
        <mxCell id="_aCOL6AofIa1MBWSSgmZ-6" value="" style="endArrow=classic;html=1;rounded=0;fontSize=18;" parent="1" edge="1">
          <mxGeometry width="50" height="50" relative="1" as="geometry">
            <mxPoint x="360" y="320" as="sourcePoint" />
            <mxPoint x="1000" y="320" as="targetPoint" />
          </mxGeometry>
        </mxCell>
        <mxCell id="_aCOL6AofIa1MBWSSgmZ-7" value="Pre-copy" style="rounded=0;whiteSpace=wrap;html=1;fontSize=18;fillColor=#E6FFCC;" parent="1" vertex="1">
          <mxGeometry x="440" y="280" width="160" height="40" as="geometry" />
        </mxCell>
        <mxCell id="_aCOL6AofIa1MBWSSgmZ-8" value="Downtime" style="rounded=0;whiteSpace=wrap;html=1;fontSize=18;fillColor=#9AC7BF;" parent="1" vertex="1">
          <mxGeometry x="600" y="280" width="120" height="40" as="geometry" />
        </mxCell>
        <mxCell id="_aCOL6AofIa1MBWSSgmZ-9" value="Post-copy" style="rounded=0;whiteSpace=wrap;html=1;fontSize=18;fillColor=#E6FFCC;" parent="1" vertex="1">
          <mxGeometry x="720" y="280" width="160" height="40" as="geometry" />
        </mxCell>
        <mxCell id="_aCOL6AofIa1MBWSSgmZ-11" value="&lt;font style=&quot;font-size: 18px;&quot;&gt;End&lt;/font&gt;" style="text;html=1;strokeColor=none;fillColor=none;align=center;verticalAlign=middle;whiteSpace=wrap;rounded=0;" parent="1" vertex="1">
          <mxGeometry x="890" y="285" width="60" height="30" as="geometry" />
        </mxCell>
        <mxCell id="_aCOL6AofIa1MBWSSgmZ-12" value="Timeline" style="text;html=1;strokeColor=none;fillColor=none;align=center;verticalAlign=middle;whiteSpace=wrap;rounded=0;fontSize=18;" parent="1" vertex="1">
          <mxGeometry x="900" y="320" width="100" height="30" as="geometry" />
        </mxCell>
        <mxCell id="_aCOL6AofIa1MBWSSgmZ-13" value="" style="fontColor=#0066CC;verticalAlign=top;verticalLabelPosition=bottom;labelPosition=center;align=center;html=1;outlineConnect=0;fillColor=#CCCCCC;strokeColor=#6881B3;gradientColor=none;gradientDirection=north;strokeWidth=2;shape=mxgraph.networks.pc;fontSize=18;" parent="1" vertex="1">
          <mxGeometry x="495" y="232.5" width="50" height="35" as="geometry" />
        </mxCell>
        <mxCell id="_aCOL6AofIa1MBWSSgmZ-14" value="" style="endArrow=none;html=1;rounded=0;fontSize=18;exitX=0;exitY=0;exitDx=0;exitDy=0;" parent="1" edge="1" source="_aCOL6AofIa1MBWSSgmZ-7">
          <mxGeometry width="50" height="50" relative="1" as="geometry">
            <mxPoint x="200" y="280" as="sourcePoint" />
            <mxPoint x="440" y="240" as="targetPoint" />
          </mxGeometry>
        </mxCell>
        <mxCell id="_aCOL6AofIa1MBWSSgmZ-15" value="" style="endArrow=none;html=1;rounded=0;fontSize=18;" parent="1" edge="1">
          <mxGeometry width="50" height="50" relative="1" as="geometry">
            <mxPoint x="600" y="280" as="sourcePoint" />
            <mxPoint x="600" y="240" as="targetPoint" />
          </mxGeometry>
        </mxCell>
        <mxCell id="_aCOL6AofIa1MBWSSgmZ-16" value="VM on src server" style="text;html=1;strokeColor=none;fillColor=none;align=center;verticalAlign=middle;whiteSpace=wrap;rounded=0;fontSize=18;" parent="1" vertex="1">
          <mxGeometry x="440" y="200" width="160" height="30" as="geometry" />
        </mxCell>
        <mxCell id="_aCOL6AofIa1MBWSSgmZ-17" value="" style="endArrow=classic;html=1;rounded=0;fontSize=18;dashed=1;" parent="1" edge="1">
          <mxGeometry width="50" height="50" relative="1" as="geometry">
            <mxPoint x="480" y="260" as="sourcePoint" />
            <mxPoint x="440" y="260" as="targetPoint" />
          </mxGeometry>
        </mxCell>
        <mxCell id="_aCOL6AofIa1MBWSSgmZ-18" value="" style="endArrow=classic;html=1;rounded=0;fontSize=18;dashed=1;" parent="1" edge="1">
          <mxGeometry width="50" height="50" relative="1" as="geometry">
            <mxPoint x="560" y="260" as="sourcePoint" />
            <mxPoint x="600" y="260" as="targetPoint" />
          </mxGeometry>
        </mxCell>
        <mxCell id="_aCOL6AofIa1MBWSSgmZ-19" value="" style="endArrow=none;html=1;rounded=0;fontSize=18;" parent="1" edge="1">
          <mxGeometry width="50" height="50" relative="1" as="geometry">
            <mxPoint x="720" y="280" as="sourcePoint" />
            <mxPoint x="720" y="240" as="targetPoint" />
          </mxGeometry>
        </mxCell>
        <mxCell id="_aCOL6AofIa1MBWSSgmZ-20" value="" style="endArrow=none;html=1;rounded=0;fontSize=18;" parent="1" edge="1">
          <mxGeometry width="50" height="50" relative="1" as="geometry">
            <mxPoint x="880" y="280" as="sourcePoint" />
            <mxPoint x="880" y="240" as="targetPoint" />
          </mxGeometry>
        </mxCell>
        <mxCell id="_aCOL6AofIa1MBWSSgmZ-21" value="" style="fontColor=#0066CC;verticalAlign=top;verticalLabelPosition=bottom;labelPosition=center;align=center;html=1;outlineConnect=0;fillColor=#CCCCCC;strokeColor=#6881B3;gradientColor=none;gradientDirection=north;strokeWidth=2;shape=mxgraph.networks.pc;fontSize=18;" parent="1" vertex="1">
          <mxGeometry x="775" y="230" width="50" height="35" as="geometry" />
        </mxCell>
        <mxCell id="_aCOL6AofIa1MBWSSgmZ-22" value="" style="endArrow=classic;html=1;rounded=0;fontSize=18;dashed=1;" parent="1" edge="1">
          <mxGeometry width="50" height="50" relative="1" as="geometry">
            <mxPoint x="760" y="260" as="sourcePoint" />
            <mxPoint x="720" y="260" as="targetPoint" />
          </mxGeometry>
        </mxCell>
        <mxCell id="_aCOL6AofIa1MBWSSgmZ-23" value="" style="endArrow=classic;html=1;rounded=0;fontSize=18;dashed=1;" parent="1" edge="1">
          <mxGeometry width="50" height="50" relative="1" as="geometry">
            <mxPoint x="840" y="260" as="sourcePoint" />
            <mxPoint x="880" y="260" as="targetPoint" />
          </mxGeometry>
        </mxCell>
        <mxCell id="_aCOL6AofIa1MBWSSgmZ-24" value="VM on dst server" style="text;html=1;strokeColor=none;fillColor=none;align=center;verticalAlign=middle;whiteSpace=wrap;rounded=0;fontSize=18;" parent="1" vertex="1">
          <mxGeometry x="720" y="200" width="160" height="30" as="geometry" />
        </mxCell>
        <mxCell id="_aCOL6AofIa1MBWSSgmZ-25" value="" style="ellipse;shape=cloud;whiteSpace=wrap;html=1;fontSize=18;fillColor=#F19C99;" parent="1" vertex="1">
          <mxGeometry x="622.5" y="170" width="75" height="50" as="geometry" />
        </mxCell>
        <mxCell id="_aCOL6AofIa1MBWSSgmZ-26" value="" style="curved=1;endArrow=classic;html=1;rounded=0;fontSize=18;dashed=1;" parent="1" edge="1">
          <mxGeometry width="50" height="50" relative="1" as="geometry">
            <mxPoint x="600" y="260" as="sourcePoint" />
            <mxPoint x="630" y="200" as="targetPoint" />
            <Array as="points">
              <mxPoint x="600" y="210" />
            </Array>
          </mxGeometry>
        </mxCell>
        <mxCell id="_aCOL6AofIa1MBWSSgmZ-28" value="" style="curved=1;endArrow=classic;html=1;rounded=0;dashed=1;fontSize=18;" parent="1" edge="1">
          <mxGeometry width="50" height="50" relative="1" as="geometry">
            <mxPoint x="690" y="200" as="sourcePoint" />
            <mxPoint x="720" y="260" as="targetPoint" />
            <Array as="points">
              <mxPoint x="720" y="200" />
            </Array>
          </mxGeometry>
        </mxCell>
        <mxCell id="_aCOL6AofIa1MBWSSgmZ-29" value="vmstate transmission" style="text;html=1;strokeColor=none;fillColor=none;align=center;verticalAlign=middle;whiteSpace=wrap;rounded=0;fontSize=18;" parent="1" vertex="1">
          <mxGeometry x="630" y="230" width="60" height="30" as="geometry" />
        </mxCell>
        <mxCell id="WvZuHLwOSjtssqFwPs-B-2" value="&lt;font style=&quot;font-size: 18px;&quot;&gt;0&lt;/font&gt;" style="text;html=1;strokeColor=none;fillColor=none;align=center;verticalAlign=middle;whiteSpace=wrap;rounded=0;" parent="1" vertex="1">
          <mxGeometry x="320" y="320" width="60" height="30" as="geometry" />
        </mxCell>
        <mxCell id="WvZuHLwOSjtssqFwPs-B-3" value="time pointer" style="text;html=1;strokeColor=none;fillColor=none;align=center;verticalAlign=middle;whiteSpace=wrap;rounded=0;fontSize=18;" parent="1" vertex="1">
          <mxGeometry x="314" y="190" width="100" height="30" as="geometry" />
        </mxCell>
        <mxCell id="Ytj0PdgWRgDravnHIEoL-1" value="" style="endArrow=classic;html=1;rounded=0;fontSize=18;entryX=0;entryY=1;entryDx=0;entryDy=0;" parent="1" target="_aCOL6AofIa1MBWSSgmZ-1" edge="1">
          <mxGeometry width="50" height="50" relative="1" as="geometry">
            <mxPoint x="360" y="220" as="sourcePoint" />
            <mxPoint x="170" y="150" as="targetPoint" />
          </mxGeometry>
        </mxCell>
        <mxCell id="iynGfj1uVqUO5GpkPn75-2" style="edgeStyle=orthogonalEdgeStyle;rounded=0;orthogonalLoop=1;jettySize=auto;html=1;exitX=1;exitY=0;exitDx=0;exitDy=0;" edge="1" parent="1" source="iynGfj1uVqUO5GpkPn75-1">
          <mxGeometry relative="1" as="geometry">
            <mxPoint x="720" y="320" as="targetPoint" />
          </mxGeometry>
        </mxCell>
        <mxCell id="iynGfj1uVqUO5GpkPn75-1" value="&lt;font style=&quot;font-size: 18px;&quot;&gt;Backup image&lt;/font&gt;" style="rounded=0;whiteSpace=wrap;html=1;fillColor=#A9C4EB;" vertex="1" parent="1">
          <mxGeometry x="440" y="360" width="280" height="40" as="geometry" />
        </mxCell>
        <mxCell id="iynGfj1uVqUO5GpkPn75-4" value="" style="curved=1;endArrow=classic;html=1;rounded=0;fontSize=18;" edge="1" parent="1">
          <mxGeometry width="50" height="50" relative="1" as="geometry">
            <mxPoint x="500" y="270" as="sourcePoint" />
            <mxPoint x="530" y="350" as="targetPoint" />
            <Array as="points">
              <mxPoint x="500" y="330" />
            </Array>
          </mxGeometry>
        </mxCell>
        <mxCell id="iynGfj1uVqUO5GpkPn75-7" style="edgeStyle=orthogonalEdgeStyle;rounded=0;orthogonalLoop=1;jettySize=auto;html=1;exitX=1;exitY=0;exitDx=0;exitDy=0;fontSize=18;" edge="1" parent="1" source="iynGfj1uVqUO5GpkPn75-6">
          <mxGeometry relative="1" as="geometry">
            <mxPoint x="850" y="320" as="targetPoint" />
          </mxGeometry>
        </mxCell>
        <mxCell id="iynGfj1uVqUO5GpkPn75-6" value="Logs" style="rounded=0;whiteSpace=wrap;html=1;fontSize=18;fillColor=#CCFFE6;" vertex="1" parent="1">
          <mxGeometry x="720" y="360" width="130" height="40" as="geometry" />
        </mxCell>
        <mxCell id="iynGfj1uVqUO5GpkPn75-8" value="" style="curved=1;endArrow=classic;html=1;rounded=0;fontSize=18;" edge="1" parent="1">
          <mxGeometry width="50" height="50" relative="1" as="geometry">
            <mxPoint x="775" y="270" as="sourcePoint" />
            <mxPoint x="800" y="350" as="targetPoint" />
            <Array as="points">
              <mxPoint x="775" y="330" />
            </Array>
          </mxGeometry>
        </mxCell>
      </root>
    </mxGraphModel>
  </diagram>
</mxfile>
